# xmcd
#
# Track frame offsets:
# 150
# 11234
# 24842
# 37773
# 53402
# 59710
# 75725
# 90114
# 105704
# 116931
# 127661
# 141975
# 162192
# 175144
# 191809
# 212184
# 225527
# 237357
# 255521
# 277137
#
# Disc length: 3978 seconds
#
# Revision: 0
# Processed by: cddbd v1.5.2PL0 Copyright (c) Steve Scherf et al.
# Submitted via: Audion 3.0.2 (http://www.panic.com/audion/)
#
DISCID=0b0f8814
DTITLE=Patty Pravo - I Mitici 45
DYEAR=1900
DGENRE=
TTITLE0=Il Paradiso
TTITLE1=Ballerina Ballerina
TTITLE2=Scende La Note Sale La Luna
TTITLE3=Torna Insieme A Lei
TTITLE4=Day That My Love Went Away
TTITLE5=Una Conchiglia
TTITLE6=Perché Sei Il Mio Uomo
TTITLE7=Un Poco Di Pioggia
TTITLE8=1941
TTITLE9=Roma E'Una Prigione
TTITLE10=All'Inferno Insieme A Te
TTITLE11=Tutt'Al Più
TTITLE12=Il Mio Fiore Nero
TTITLE13=Chissà Come Finirò
TTITLE14=La Spada Nel Cuore
TTITLE15=La Tua Voce
TTITLE16=Chi Ti Darà
TTITLE17=La Solitudine
TTITLE18=Encuentro
TTITLE19=Crazy Idea
EXTD=
EXTT0=
EXTT1=
EXTT2=
EXTT3=
EXTT4=
EXTT5=
EXTT6=
EXTT7=
EXTT8=
EXTT9=
EXTT10=
EXTT11=
EXTT12=
EXTT13=
EXTT14=
EXTT15=
EXTT16=
EXTT17=
EXTT18=
EXTT19=
PLAYORDER=
